<?xml version="1.0" encoding="utf-8"?>
<!-- Generator: Adobe Illustrator 19.2.1, SVG Export Plug-In . SVG Version: 6.00 Build 0)  -->
<svg version="1.1" id="Layer_1" xmlns="http://www.w3.org/2000/svg" xmlns:xlink="http://www.w3.org/1999/xlink" x="0px" y="0px"
	 width="100px" height="100px" viewBox="0 0 100 100" style="enable-background:new 0 0 100 100;" xml:space="preserve">
<g>
	<g>
		<path d="M25.5,78.6c0-0.8-0.6-1.3-1.6-1.3c-0.4,0-0.7,0-0.8,0.1V80c0.2,0,0.4,0.1,0.7,0.1C24.9,80,25.5,79.5,25.5,78.6z"/>
		<path d="M31.8,77.3c-0.5,0-0.7,0-0.9,0.1v5.9c0.2,0,0.5,0,0.7,0c1.8,0,3-1,3-3.2C34.7,78.3,33.6,77.3,31.8,77.3z"/>
		<path d="M71.9,3.6H23.4c-2.9,0-5.3,2.4-5.3,5.3v62.5h-0.5c-1.2,0-2.1,1-2.1,2.1v13c0,1.2,1,2.1,2.1,2.1h0.5v2.4
			c0,2.9,2.4,5.3,5.3,5.3h55.8c2.9,0,5.3-2.4,5.3-5.3V16.2L71.9,3.6z M21.1,75.9c0.6-0.1,1.5-0.2,2.8-0.2c1.3,0,2.2,0.2,2.8,0.7
			c0.6,0.5,1,1.2,1,2.1c0,0.9-0.3,1.6-0.8,2.1c-0.7,0.7-1.7,0.9-2.9,0.9c-0.3,0-0.5,0-0.7,0v3.2h-2V75.9z M79.2,93.1H23.4
			c-1.1,0-2.1-0.9-2.1-2.1v-2.4h25.5c1.2,0,2.1-1,2.1-2.1v-13c0-1.2-1-2.1-2.1-2.1H21.4V8.9c0-1.1,0.9-2.1,2.1-2.1l47.3,0v7
			c0,2,1.7,3.7,3.7,3.7l6.8,0l0.1,73.6C81.3,92.2,80.4,93.1,79.2,93.1z M28.8,84.8v-8.9c0.7-0.1,1.7-0.2,2.8-0.2
			c1.7,0,2.8,0.3,3.7,1c0.9,0.7,1.5,1.8,1.5,3.4c0,1.7-0.6,2.9-1.5,3.7c-0.9,0.8-2.4,1.2-4.2,1.2C30.1,84.9,29.3,84.8,28.8,84.8z
			 M43.4,79.5v1.7h-3.2v3.6h-2v-9h5.5v1.7h-3.5v2.1H43.4z"/>
	</g>
	<g id="XMLID_2932_">
		<g id="XMLID_2933_">
			<path id="XMLID_2940_" d="M51.1,34.5C55.6,33,60,34,64.5,34c1.4,0,2.4-0.5,3.8-0.9c0.1-0.1,0-0.1,0-0.1c-3.9-0.5-6.6-2.8-9.9-4.4
				c-0.7-0.4-1.8-0.5-2.1-0.4c-6.6,1.5-12,9.5-9.2,15.7c0.5,0.9,0.9,1.9,1.8,2.4c0.1,0,0.2,0.1,0.1,0C45.7,42.8,46.7,36.4,51.1,34.5
				"/>
			<path id="XMLID_2939_" d="M59,37.2c3.5,2.5,5.9,6.4,9.4,9.4c0.9,0.9,2.3,1,3.3,1.8c0.1,0.1,0.2,0.1,0.1,0
				c-1.6-3.3-3.6-6.2-4.5-9.6c-0.2-1.1-0.9-2.7-2.7-3.5c-4.1-1.8-9.1-0.9-12.8,1.6c-1.8,1.1-2.4,2.2-2.7,2.9
				c-0.2,0.3-0.2,0.6-0.2,0.7c-0.2,0.7-0.3,1.3-0.3,2c0,0.3,0,0.1,0.1-0.3c0.5-3.8,3.8-5.9,7.4-5.9C57.1,36.2,58,36.7,59,37.2"/>
			<path id="XMLID_2938_" d="M61.8,46.5c-0.2,3.2-1.3,6.3-2.3,9.5c-0.2,0.7-0.4,2-0.4,2.3c0,1,0,2,0.3,3.1c0,0.1,0.1,0,0.2,0
				c2.2-3.7,4.9-6.1,7.1-9.9c0.2-0.6,0.4-1.6,0.4-2.4c-0.1-0.7-0.6-2.4-1.5-3.8c-0.6-0.9-1.3-1.9-1.6-2.2c-3.2-4.2-9.6-6.7-13.2-2.7
				c3.2-3.3,8.1-1.6,10.3,2C61.7,43.6,61.8,45.8,61.8,46.5"/>
			<path id="XMLID_2937_" d="M52.1,54.7c-3.5,1.3-7,3.1-10,5c-0.1,0.1-0.1,0.1,0,0.1c3.8,0.1,7.6-0.6,11.4-0.7
				c1.8-0.2,2.9-1.1,3.3-1.7c2.1-2.9,2.4-6.2,2.5-9.8c0-1-0.6-3.9-1.5-5.3c-0.7-1-1.5-1.7-2-2c-0.9-0.5,0,0.1,0.1,0.1
				c2.1,1.5,3,4.7,2.7,7.3C58.5,48.5,57.4,52.8,52.1,54.7"/>
			<path id="XMLID_2936_" d="M48.7,51.8c-1.9,0.1-4.6-0.5-5.8-1c-4.3-1.8-5.2-2.3-9.8-4.5c0,0-0.5-0.3-0.7-0.3
				c-0.2-0.1-0.1,0.1,0,0.2c3.3,2.5,6.1,6.1,8.9,9c0.5,0.7,1.8,0.8,3.9,0.4c5.9-1.1,12.2-5.2,11-11.8c0-0.1-0.2-0.9-0.4-1.3
				c-0.2-0.3-0.2-0.3,0,0c0.2,0.4,0.3,0.8,0.4,1.2c0.6,3-1.2,6.3-4.1,7.3c-0.8,0.3-1.3,0.5-2.1,0.6c-0.3,0-0.6,0.1-0.9,0.1
				C48.9,51.8,48.8,51.8,48.7,51.8"/>
			<path id="XMLID_2935_" d="M41.2,43.5c-1.4-4.5-0.8-8-1.3-12.6c-0.1-0.9-0.3-1.2-0.5-1.5c-0.1-0.2-0.3-0.4-0.4-0.7
				c0-0.1-0.1-0.1-0.2,0c-0.1,0.3-0.1,0.6-0.2,0.9c-0.8,3.5-2.3,7.1-2.7,10.9c-0.3,1.8,0.4,2.8,0.7,3.1c2.1,2.5,4.9,4.9,8.1,6.1
				c1,0.4,2,0.6,3.2,0.7c1.1,0,2.1-0.2,2.6-0.4c0.8-0.3,1.7-0.8,2.3-1.3c0.2-0.2,0.4-0.3,0.5-0.5c0.1-0.1,0.3-0.3,0.4-0.4
				c0.8-1.1,0.2-0.3-0.2,0.1c-1.5,1.5-4.3,1.7-6.5,1.2c-1.4-0.3-2.9-1.1-3.8-2.2C41.7,45.3,41.4,44.2,41.2,43.5"/>
			<path id="XMLID_2934_" d="M45,36c1.2-2.6,4.2-4.4,6.5-6.3c0.6-0.5,3-3.9,3.1-5.9c0-0.1-0.1-0.1-0.2,0c-0.6,0.8-1.1,1.4-1.7,1.9
				c-3.7,3.1-6.3,3.2-6.6,3.2c-0.4,0.1-1.2,0.2-1.6,0.3c-3.9,1.7-3.4,6.8-2.6,10c0.5,1.9,0.8,2.8,1.6,4c2.4,3.6,5.9,4.5,8.1,4.1
				c-4.5,0.5-7.9-4-7.4-8.4C44.2,38.4,44.8,36.6,45,36"/>
		</g>
	</g>
</g>
</svg>
